<svg xmlns="http://www.w3.org/2000/svg" width="900" height="268" viewBox="0 0 900 268">
  <rect width="900" height="268" fill="#ffffff" rx="6" ry="6" />
  <!-- title -->
  <text x="450" y="20" text-anchor="middle"
        font-family="-apple-system, BlinkMacSystemFont, &quot;Segoe UI&quot;, Helvetica, Arial, sans-serif" font-size="14" font-weight="600" fill="#24292e"
        >Auction Listings — Record Growth</text>
  <!-- legend -->
  <circle cx="365" cy="31" r="4" fill="#3b82f6" />
  <text x="373" y="34" font-family="-apple-system, BlinkMacSystemFont, &quot;Segoe UI&quot;, Helvetica, Arial, sans-serif" font-size="11" fill="#586069">Total Records</text>
  <circle cx="455" cy="31" r="4" fill="#22c55e" />
  <text x="463" y="34" font-family="-apple-system, BlinkMacSystemFont, &quot;Segoe UI&quot;, Helvetica, Arial, sans-serif" font-size="11" fill="#586069">Added</text>
  <!-- grid lines -->
  <line x1="58" y1="52" x2="848" y2="52"
           stroke="#e1e4e8" stroke-width="1" stroke-dasharray="4,3" />
  <line x1="58" y1="145" x2="848" y2="145"
           stroke="#e1e4e8" stroke-width="1" stroke-dasharray="4,3" />
  <line x1="58" y1="236" x2="848" y2="236"
           stroke="#e1e4e8" stroke-width="1" stroke-dasharray="4,3" />
  <!-- bars (Added, right axis) -->
  <rect x="60" y="172" width="35" height="68"
          rx="1" fill="#22c55eb3" />
  <rect x="97" y="184" width="35" height="56"
          rx="1" fill="#22c55eb3" />
  <rect x="134" y="165" width="35" height="75"
          rx="1" fill="#22c55eb3" />
  <rect x="171" y="190" width="35" height="50"
          rx="1" fill="#22c55eb3" />
  <rect x="208" y="162" width="35" height="78"
          rx="1" fill="#22c55eb3" />
  <rect x="245" y="193" width="35" height="47"
          rx="1" fill="#22c55eb3" />
  <rect x="282" y="172" width="35" height="68"
          rx="1" fill="#22c55eb3" />
  <rect x="319" y="208" width="35" height="32"
          rx="1" fill="#22c55eb3" />
  <rect x="356" y="171" width="35" height="69"
          rx="1" fill="#22c55eb3" />
  <rect x="393" y="203" width="35" height="37"
          rx="1" fill="#22c55eb3" />
  <rect x="430" y="223" width="35" height="17"
          rx="1" fill="#22c55eb3" />
  <rect x="467" y="211" width="35" height="29"
          rx="1" fill="#22c55eb3" />
  <rect x="504" y="156" width="35" height="84"
          rx="1" fill="#22c55eb3" />
  <rect x="541" y="228" width="35" height="12"
          rx="1" fill="#22c55eb3" />
  <rect x="578" y="73" width="35" height="167"
          rx="1" fill="#22c55eb3" />
  <rect x="615" y="162" width="35" height="78"
          rx="1" fill="#22c55eb3" />
  <rect x="652" y="163" width="35" height="77"
          rx="1" fill="#22c55eb3" />
  <rect x="689" y="199" width="35" height="41"
          rx="1" fill="#22c55eb3" />
  <rect x="726" y="154" width="35" height="86"
          rx="1" fill="#22c55eb3" />
  <rect x="763" y="164" width="35" height="76"
          rx="1" fill="#22c55eb3" />
  <rect x="800" y="184" width="35" height="56"
          rx="1" fill="#22c55eb3" />
  <!-- line (Total, left axis) -->
  <polyline points="77,240 114,231 151,220 188,212 225,200 262,193 299,183 336,178 373,167 410,161 447,159 484,154 521,141 558,140 595,114 632,102 669,90 706,83 743,70 780,59 817,50" fill="none" stroke="#3b82f6" stroke-width="2" stroke-linejoin="round" stroke-linecap="round" />
  <!-- left y-axis labels (Total) -->
  <text x="52" y="56" text-anchor="end"
           font-family="-apple-system, BlinkMacSystemFont, &quot;Segoe UI&quot;, Helvetica, Arial, sans-serif" font-size="10" fill="#586069"
           >836k</text>
  <text x="52" y="149" text-anchor="end"
           font-family="-apple-system, BlinkMacSystemFont, &quot;Segoe UI&quot;, Helvetica, Arial, sans-serif" font-size="10" fill="#586069"
           >551k</text>
  <text x="52" y="240" text-anchor="end"
           font-family="-apple-system, BlinkMacSystemFont, &quot;Segoe UI&quot;, Helvetica, Arial, sans-serif" font-size="10" fill="#586069"
           >266k</text>
  <!-- right y-axis labels (Added) -->
  <text x="854" y="56" text-anchor="start"
           font-family="-apple-system, BlinkMacSystemFont, &quot;Segoe UI&quot;, Helvetica, Arial, sans-serif" font-size="10" fill="#22c55e"
           >77k</text>
  <text x="854" y="149" text-anchor="start"
           font-family="-apple-system, BlinkMacSystemFont, &quot;Segoe UI&quot;, Helvetica, Arial, sans-serif" font-size="10" fill="#22c55e"
           >39k</text>
  <text x="854" y="240" text-anchor="start"
           font-family="-apple-system, BlinkMacSystemFont, &quot;Segoe UI&quot;, Helvetica, Arial, sans-serif" font-size="10" fill="#22c55e"
           >0</text>
  <!-- axes -->
  <line x1="58" y1="50" x2="58" y2="240"
        stroke="#e1e4e8" stroke-width="1" />
  <line x1="58" y1="240" x2="848" y2="240"
        stroke="#e1e4e8" stroke-width="1" />
  <line x1="848" y1="50" x2="848" y2="240"
           stroke="#e1e4e8" stroke-width="1" />
  <!-- x-axis labels -->
  <text x="77" y="256" text-anchor="middle"
           font-family="-apple-system, BlinkMacSystemFont, &quot;Segoe UI&quot;, Helvetica, Arial, sans-serif" font-size="10" fill="#586069"
           >Jan 18</text>
  <text x="299" y="256" text-anchor="middle"
           font-family="-apple-system, BlinkMacSystemFont, &quot;Segoe UI&quot;, Helvetica, Arial, sans-serif" font-size="10" fill="#586069"
           >Mar 1</text>
  <text x="521" y="256" text-anchor="middle"
           font-family="-apple-system, BlinkMacSystemFont, &quot;Segoe UI&quot;, Helvetica, Arial, sans-serif" font-size="10" fill="#586069"
           >Apr 12</text>
  <text x="743" y="256" text-anchor="middle"
           font-family="-apple-system, BlinkMacSystemFont, &quot;Segoe UI&quot;, Helvetica, Arial, sans-serif" font-size="10" fill="#586069"
           >Jun 21</text>
  <text x="817" y="256" text-anchor="middle"
           font-family="-apple-system, BlinkMacSystemFont, &quot;Segoe UI&quot;, Helvetica, Arial, sans-serif" font-size="10" fill="#586069"
           >Jul 5</text>
</svg>