<svg xmlns="http://www.w3.org/2000/svg" width="900" height="268" viewBox="0 0 900 268">
  <rect width="900" height="268" fill="#ffffff" rx="6" ry="6" />
  <!-- title -->
  <text x="450" y="20" text-anchor="middle"
        font-family="-apple-system, BlinkMacSystemFont, &quot;Segoe UI&quot;, Helvetica, Arial, sans-serif" font-size="14" font-weight="600" fill="#24292e"
        >Auction Listings — Record Growth</text>
  <!-- legend -->
  <circle cx="365" cy="31" r="4" fill="#3b82f6" />
  <text x="373" y="34" font-family="-apple-system, BlinkMacSystemFont, &quot;Segoe UI&quot;, Helvetica, Arial, sans-serif" font-size="11" fill="#586069">Total Records</text>
  <circle cx="455" cy="31" r="4" fill="#22c55e" />
  <text x="463" y="34" font-family="-apple-system, BlinkMacSystemFont, &quot;Segoe UI&quot;, Helvetica, Arial, sans-serif" font-size="11" fill="#586069">Added</text>
  <!-- grid lines -->
  <line x1="58" y1="52" x2="848" y2="52"
           stroke="#e1e4e8" stroke-width="1" stroke-dasharray="4,3" />
  <line x1="58" y1="145" x2="848" y2="145"
           stroke="#e1e4e8" stroke-width="1" stroke-dasharray="4,3" />
  <line x1="58" y1="236" x2="848" y2="236"
           stroke="#e1e4e8" stroke-width="1" stroke-dasharray="4,3" />
  <!-- bars (Added, right axis) -->
  <rect x="60" y="230" width="35" height="10"
          rx="1" fill="#22c55eb3" />
  
  <rect x="134" y="229" width="35" height="11"
          rx="1" fill="#22c55eb3" />
  <rect x="171" y="73" width="35" height="167"
          rx="1" fill="#22c55eb3" />
  <rect x="208" y="150" width="35" height="90"
          rx="1" fill="#22c55eb3" />
  <rect x="245" y="149" width="35" height="91"
          rx="1" fill="#22c55eb3" />
  <rect x="282" y="183" width="35" height="57"
          rx="1" fill="#22c55eb3" />
  <rect x="319" y="217" width="35" height="23"
          rx="1" fill="#22c55eb3" />
  <rect x="356" y="81" width="35" height="159"
          rx="1" fill="#22c55eb3" />
  <rect x="393" y="158" width="35" height="82"
          rx="1" fill="#22c55eb3" />
  <rect x="430" y="173" width="35" height="67"
          rx="1" fill="#22c55eb3" />
  <rect x="467" y="150" width="35" height="90"
          rx="1" fill="#22c55eb3" />
  <rect x="504" y="180" width="35" height="60"
          rx="1" fill="#22c55eb3" />
  <rect x="541" y="147" width="35" height="93"
          rx="1" fill="#22c55eb3" />
  <rect x="578" y="184" width="35" height="56"
          rx="1" fill="#22c55eb3" />
  <rect x="615" y="159" width="35" height="81"
          rx="1" fill="#22c55eb3" />
  <rect x="652" y="202" width="35" height="38"
          rx="1" fill="#22c55eb3" />
  <rect x="689" y="157" width="35" height="83"
          rx="1" fill="#22c55eb3" />
  <rect x="726" y="196" width="35" height="44"
          rx="1" fill="#22c55eb3" />
  <rect x="763" y="219" width="35" height="21"
          rx="1" fill="#22c55eb3" />
  <rect x="800" y="206" width="35" height="34"
          rx="1" fill="#22c55eb3" />
  <!-- line (Total, left axis) -->
  <polyline points="77,240 114,240 151,238 188,215 225,202 262,189 299,181 336,178 373,156 410,144 447,135 484,122 521,113 558,100 595,92 632,81 669,76 706,64 743,58 780,55 817,50" fill="none" stroke="#3b82f6" stroke-width="2" stroke-linejoin="round" stroke-linecap="round" />
  <!-- left y-axis labels (Total) -->
  <text x="52" y="56" text-anchor="end"
           font-family="-apple-system, BlinkMacSystemFont, &quot;Segoe UI&quot;, Helvetica, Arial, sans-serif" font-size="10" fill="#586069"
           >523k</text>
  <text x="52" y="149" text-anchor="end"
           font-family="-apple-system, BlinkMacSystemFont, &quot;Segoe UI&quot;, Helvetica, Arial, sans-serif" font-size="10" fill="#586069"
           >263k</text>
  <text x="52" y="240" text-anchor="end"
           font-family="-apple-system, BlinkMacSystemFont, &quot;Segoe UI&quot;, Helvetica, Arial, sans-serif" font-size="10" fill="#586069"
           >4k</text>
  <!-- right y-axis labels (Added) -->
  <text x="854" y="56" text-anchor="start"
           font-family="-apple-system, BlinkMacSystemFont, &quot;Segoe UI&quot;, Helvetica, Arial, sans-serif" font-size="10" fill="#22c55e"
           >64k</text>
  <text x="854" y="149" text-anchor="start"
           font-family="-apple-system, BlinkMacSystemFont, &quot;Segoe UI&quot;, Helvetica, Arial, sans-serif" font-size="10" fill="#22c55e"
           >32k</text>
  <text x="854" y="240" text-anchor="start"
           font-family="-apple-system, BlinkMacSystemFont, &quot;Segoe UI&quot;, Helvetica, Arial, sans-serif" font-size="10" fill="#22c55e"
           >0</text>
  <!-- axes -->
  <line x1="58" y1="50" x2="58" y2="240"
        stroke="#e1e4e8" stroke-width="1" />
  <line x1="58" y1="240" x2="848" y2="240"
        stroke="#e1e4e8" stroke-width="1" />
  <line x1="848" y1="50" x2="848" y2="240"
           stroke="#e1e4e8" stroke-width="1" />
  <!-- x-axis labels -->
  <text x="77" y="256" text-anchor="middle"
           font-family="-apple-system, BlinkMacSystemFont, &quot;Segoe UI&quot;, Helvetica, Arial, sans-serif" font-size="10" fill="#586069"
           >Nov 16</text>
  <text x="299" y="256" text-anchor="middle"
           font-family="-apple-system, BlinkMacSystemFont, &quot;Segoe UI&quot;, Helvetica, Arial, sans-serif" font-size="10" fill="#586069"
           >Dec 28</text>
  <text x="521" y="256" text-anchor="middle"
           font-family="-apple-system, BlinkMacSystemFont, &quot;Segoe UI&quot;, Helvetica, Arial, sans-serif" font-size="10" fill="#586069"
           >Feb 8</text>
  <text x="743" y="256" text-anchor="middle"
           font-family="-apple-system, BlinkMacSystemFont, &quot;Segoe UI&quot;, Helvetica, Arial, sans-serif" font-size="10" fill="#586069"
           >Mar 22</text>
  <text x="817" y="256" text-anchor="middle"
           font-family="-apple-system, BlinkMacSystemFont, &quot;Segoe UI&quot;, Helvetica, Arial, sans-serif" font-size="10" fill="#586069"
           >Apr 5</text>
</svg>