<svg xmlns="http://www.w3.org/2000/svg" width="900" height="268" viewBox="0 0 900 268">
  <rect width="900" height="268" fill="#ffffff" rx="6" ry="6" />
  <!-- title -->
  <text x="450" y="20" text-anchor="middle"
        font-family="-apple-system, BlinkMacSystemFont, &quot;Segoe UI&quot;, Helvetica, Arial, sans-serif" font-size="14" font-weight="600" fill="#24292e"
        >Auction Listings — Record Growth</text>
  <!-- legend -->
  <circle cx="365" cy="31" r="4" fill="#3b82f6" />
  <text x="373" y="34" font-family="-apple-system, BlinkMacSystemFont, &quot;Segoe UI&quot;, Helvetica, Arial, sans-serif" font-size="11" fill="#586069">Total Records</text>
  <circle cx="455" cy="31" r="4" fill="#22c55e" />
  <text x="463" y="34" font-family="-apple-system, BlinkMacSystemFont, &quot;Segoe UI&quot;, Helvetica, Arial, sans-serif" font-size="11" fill="#586069">Added</text>
  <!-- grid lines -->
  <line x1="58" y1="52" x2="848" y2="52"
           stroke="#e1e4e8" stroke-width="1" stroke-dasharray="4,3" />
  <line x1="58" y1="145" x2="848" y2="145"
           stroke="#e1e4e8" stroke-width="1" stroke-dasharray="4,3" />
  <line x1="58" y1="236" x2="848" y2="236"
           stroke="#e1e4e8" stroke-width="1" stroke-dasharray="4,3" />
  <!-- bars (Added, right axis) -->
  <rect x="59" y="156" width="54" height="84"
          rx="1" fill="#22c55eb3" />
  <rect x="115" y="228" width="54" height="12"
          rx="1" fill="#22c55eb3" />
  <rect x="171" y="73" width="54" height="167"
          rx="1" fill="#22c55eb3" />
  <rect x="227" y="162" width="54" height="78"
          rx="1" fill="#22c55eb3" />
  <rect x="283" y="163" width="54" height="77"
          rx="1" fill="#22c55eb3" />
  <rect x="339" y="199" width="54" height="41"
          rx="1" fill="#22c55eb3" />
  <rect x="395" y="154" width="54" height="86"
          rx="1" fill="#22c55eb3" />
  <rect x="451" y="164" width="54" height="76"
          rx="1" fill="#22c55eb3" />
  <rect x="507" y="156" width="54" height="84"
          rx="1" fill="#22c55eb3" />
  <rect x="563" y="168" width="54" height="72"
          rx="1" fill="#22c55eb3" />
  <rect x="619" y="139" width="54" height="101"
          rx="1" fill="#22c55eb3" />
  <rect x="675" y="164" width="54" height="76"
          rx="1" fill="#22c55eb3" />
  <rect x="731" y="143" width="54" height="97"
          rx="1" fill="#22c55eb3" />
  <rect x="787" y="199" width="54" height="41"
          rx="1" fill="#22c55eb3" />
  <!-- line (Total, left axis) -->
  <polyline points="86,240 142,238 198,206 254,192 310,177 366,169 422,153 478,139 534,123 590,109 646,90 702,76 758,58 814,50" fill="none" stroke="#3b82f6" stroke-width="2" stroke-linejoin="round" stroke-linecap="round" />
  <!-- left y-axis labels (Total) -->
  <text x="52" y="56" text-anchor="end"
           font-family="-apple-system, BlinkMacSystemFont, &quot;Segoe UI&quot;, Helvetica, Arial, sans-serif" font-size="10" fill="#586069"
           >1.0M</text>
  <text x="52" y="149" text-anchor="end"
           font-family="-apple-system, BlinkMacSystemFont, &quot;Segoe UI&quot;, Helvetica, Arial, sans-serif" font-size="10" fill="#586069"
           >795k</text>
  <text x="52" y="240" text-anchor="end"
           font-family="-apple-system, BlinkMacSystemFont, &quot;Segoe UI&quot;, Helvetica, Arial, sans-serif" font-size="10" fill="#586069"
           >562k</text>
  <!-- right y-axis labels (Added) -->
  <text x="854" y="56" text-anchor="start"
           font-family="-apple-system, BlinkMacSystemFont, &quot;Segoe UI&quot;, Helvetica, Arial, sans-serif" font-size="10" fill="#22c55e"
           >77k</text>
  <text x="854" y="149" text-anchor="start"
           font-family="-apple-system, BlinkMacSystemFont, &quot;Segoe UI&quot;, Helvetica, Arial, sans-serif" font-size="10" fill="#22c55e"
           >39k</text>
  <text x="854" y="240" text-anchor="start"
           font-family="-apple-system, BlinkMacSystemFont, &quot;Segoe UI&quot;, Helvetica, Arial, sans-serif" font-size="10" fill="#22c55e"
           >0</text>
  <!-- axes -->
  <line x1="58" y1="50" x2="58" y2="240"
        stroke="#e1e4e8" stroke-width="1" />
  <line x1="58" y1="240" x2="848" y2="240"
        stroke="#e1e4e8" stroke-width="1" />
  <line x1="848" y1="50" x2="848" y2="240"
           stroke="#e1e4e8" stroke-width="1" />
  <!-- x-axis labels -->
  <text x="86" y="256" text-anchor="middle"
           font-family="-apple-system, BlinkMacSystemFont, &quot;Segoe UI&quot;, Helvetica, Arial, sans-serif" font-size="10" fill="#586069"
           >Apr 12</text>
  <text x="310" y="256" text-anchor="middle"
           font-family="-apple-system, BlinkMacSystemFont, &quot;Segoe UI&quot;, Helvetica, Arial, sans-serif" font-size="10" fill="#586069"
           >Jun 7</text>
  <text x="534" y="256" text-anchor="middle"
           font-family="-apple-system, BlinkMacSystemFont, &quot;Segoe UI&quot;, Helvetica, Arial, sans-serif" font-size="10" fill="#586069"
           >Jul 5</text>
  <text x="758" y="256" text-anchor="middle"
           font-family="-apple-system, BlinkMacSystemFont, &quot;Segoe UI&quot;, Helvetica, Arial, sans-serif" font-size="10" fill="#586069"
           >Aug 2</text>
  <text x="814" y="256" text-anchor="middle"
           font-family="-apple-system, BlinkMacSystemFont, &quot;Segoe UI&quot;, Helvetica, Arial, sans-serif" font-size="10" fill="#586069"
           >Aug 9</text>
</svg>