<svg xmlns="http://www.w3.org/2000/svg" width="900" height="268" viewBox="0 0 900 268">
  <rect width="900" height="268" fill="#ffffff" rx="6" ry="6" />
  <!-- title -->
  <text x="450" y="20" text-anchor="middle"
        font-family="-apple-system, BlinkMacSystemFont, &quot;Segoe UI&quot;, Helvetica, Arial, sans-serif" font-size="14" font-weight="600" fill="#24292e"
        >Auction Listings — Record Growth</text>
  <!-- legend -->
  <circle cx="365" cy="31" r="4" fill="#3b82f6" />
  <text x="373" y="34" font-family="-apple-system, BlinkMacSystemFont, &quot;Segoe UI&quot;, Helvetica, Arial, sans-serif" font-size="11" fill="#586069">Total Records</text>
  <circle cx="455" cy="31" r="4" fill="#22c55e" />
  <text x="463" y="34" font-family="-apple-system, BlinkMacSystemFont, &quot;Segoe UI&quot;, Helvetica, Arial, sans-serif" font-size="11" fill="#586069">Added</text>
  <!-- grid lines -->
  <line x1="58" y1="52" x2="848" y2="52"
           stroke="#e1e4e8" stroke-width="1" stroke-dasharray="4,3" />
  <line x1="58" y1="145" x2="848" y2="145"
           stroke="#e1e4e8" stroke-width="1" stroke-dasharray="4,3" />
  <line x1="58" y1="236" x2="848" y2="236"
           stroke="#e1e4e8" stroke-width="1" stroke-dasharray="4,3" />
  <!-- bars (Added, right axis) -->
  <rect x="60" y="184" width="33" height="56"
          rx="1" fill="#22c55eb3" />
  <rect x="95" y="165" width="33" height="75"
          rx="1" fill="#22c55eb3" />
  <rect x="130" y="190" width="33" height="50"
          rx="1" fill="#22c55eb3" />
  <rect x="165" y="162" width="33" height="78"
          rx="1" fill="#22c55eb3" />
  <rect x="200" y="193" width="33" height="47"
          rx="1" fill="#22c55eb3" />
  <rect x="235" y="172" width="33" height="68"
          rx="1" fill="#22c55eb3" />
  <rect x="270" y="208" width="33" height="32"
          rx="1" fill="#22c55eb3" />
  <rect x="305" y="171" width="33" height="69"
          rx="1" fill="#22c55eb3" />
  <rect x="340" y="203" width="33" height="37"
          rx="1" fill="#22c55eb3" />
  <rect x="375" y="223" width="33" height="17"
          rx="1" fill="#22c55eb3" />
  <rect x="410" y="211" width="33" height="29"
          rx="1" fill="#22c55eb3" />
  <rect x="445" y="156" width="33" height="84"
          rx="1" fill="#22c55eb3" />
  <rect x="480" y="228" width="33" height="12"
          rx="1" fill="#22c55eb3" />
  <rect x="515" y="73" width="33" height="167"
          rx="1" fill="#22c55eb3" />
  <rect x="550" y="162" width="33" height="78"
          rx="1" fill="#22c55eb3" />
  <rect x="585" y="163" width="33" height="77"
          rx="1" fill="#22c55eb3" />
  <rect x="620" y="199" width="33" height="41"
          rx="1" fill="#22c55eb3" />
  <rect x="655" y="154" width="33" height="86"
          rx="1" fill="#22c55eb3" />
  <rect x="690" y="164" width="33" height="76"
          rx="1" fill="#22c55eb3" />
  <rect x="725" y="156" width="33" height="84"
          rx="1" fill="#22c55eb3" />
  <rect x="760" y="168" width="33" height="72"
          rx="1" fill="#22c55eb3" />
  <rect x="795" y="206" width="33" height="34"
          rx="1" fill="#22c55eb3" />
  <!-- line (Total, left axis) -->
  <polyline points="76,240 111,229 146,222 181,211 216,204 251,194 286,189 321,179 356,174 391,172 426,167 461,155 496,154 531,129 566,118 601,107 636,101 671,88 706,78 741,65 776,55 811,50" fill="none" stroke="#3b82f6" stroke-width="2" stroke-linejoin="round" stroke-linecap="round" />
  <!-- left y-axis labels (Total) -->
  <text x="52" y="56" text-anchor="end"
           font-family="-apple-system, BlinkMacSystemFont, &quot;Segoe UI&quot;, Helvetica, Arial, sans-serif" font-size="10" fill="#586069"
           >898k</text>
  <text x="52" y="149" text-anchor="end"
           font-family="-apple-system, BlinkMacSystemFont, &quot;Segoe UI&quot;, Helvetica, Arial, sans-serif" font-size="10" fill="#586069"
           >595k</text>
  <text x="52" y="240" text-anchor="end"
           font-family="-apple-system, BlinkMacSystemFont, &quot;Segoe UI&quot;, Helvetica, Arial, sans-serif" font-size="10" fill="#586069"
           >292k</text>
  <!-- right y-axis labels (Added) -->
  <text x="854" y="56" text-anchor="start"
           font-family="-apple-system, BlinkMacSystemFont, &quot;Segoe UI&quot;, Helvetica, Arial, sans-serif" font-size="10" fill="#22c55e"
           >77k</text>
  <text x="854" y="149" text-anchor="start"
           font-family="-apple-system, BlinkMacSystemFont, &quot;Segoe UI&quot;, Helvetica, Arial, sans-serif" font-size="10" fill="#22c55e"
           >39k</text>
  <text x="854" y="240" text-anchor="start"
           font-family="-apple-system, BlinkMacSystemFont, &quot;Segoe UI&quot;, Helvetica, Arial, sans-serif" font-size="10" fill="#22c55e"
           >0</text>
  <!-- axes -->
  <line x1="58" y1="50" x2="58" y2="240"
        stroke="#e1e4e8" stroke-width="1" />
  <line x1="58" y1="240" x2="848" y2="240"
        stroke="#e1e4e8" stroke-width="1" />
  <line x1="848" y1="50" x2="848" y2="240"
           stroke="#e1e4e8" stroke-width="1" />
  <!-- x-axis labels -->
  <text x="76" y="256" text-anchor="middle"
           font-family="-apple-system, BlinkMacSystemFont, &quot;Segoe UI&quot;, Helvetica, Arial, sans-serif" font-size="10" fill="#586069"
           >Jan 25</text>
  <text x="321" y="256" text-anchor="middle"
           font-family="-apple-system, BlinkMacSystemFont, &quot;Segoe UI&quot;, Helvetica, Arial, sans-serif" font-size="10" fill="#586069"
           >Mar 15</text>
  <text x="566" y="256" text-anchor="middle"
           font-family="-apple-system, BlinkMacSystemFont, &quot;Segoe UI&quot;, Helvetica, Arial, sans-serif" font-size="10" fill="#586069"
           >May 31</text>
  <text x="811" y="256" text-anchor="middle"
           font-family="-apple-system, BlinkMacSystemFont, &quot;Segoe UI&quot;, Helvetica, Arial, sans-serif" font-size="10" fill="#586069"
           >Jul 19</text>
</svg>